<mxfile host="app.diagrams.net" agent="Mozilla/5.0 (Windows NT 10.0; Win64; x64) AppleWebKit/537.36 (KHTML, like Gecko) Chrome/129.0.0.0 Safari/537.36" version="24.8.0">
  <diagram name="Страница — 1" id="vqSAM3bUOZOxfTERLJJv">
    <mxGraphModel dx="829" dy="465" grid="1" gridSize="10" guides="1" tooltips="1" connect="1" arrows="1" fold="1" page="0" pageScale="1" pageWidth="827" pageHeight="1169" math="0" shadow="0">
      <root>
        <mxCell id="0" />
        <mxCell id="1" parent="0" />
        <mxCell id="Fs5cBfS6wUx0xTRTHXM6-15" value="" style="ellipse;whiteSpace=wrap;html=1;aspect=fixed;" vertex="1" parent="1">
          <mxGeometry x="1000" y="400" width="80" height="80" as="geometry" />
        </mxCell>
        <mxCell id="Fs5cBfS6wUx0xTRTHXM6-2" value="" style="ellipse;whiteSpace=wrap;html=1;aspect=fixed;" vertex="1" parent="1">
          <mxGeometry x="200" y="200" width="80" height="80" as="geometry" />
        </mxCell>
        <mxCell id="Fs5cBfS6wUx0xTRTHXM6-3" value="" style="ellipse;whiteSpace=wrap;html=1;aspect=fixed;" vertex="1" parent="1">
          <mxGeometry x="400" y="200" width="80" height="80" as="geometry" />
        </mxCell>
        <mxCell id="Fs5cBfS6wUx0xTRTHXM6-4" value="" style="ellipse;whiteSpace=wrap;html=1;aspect=fixed;" vertex="1" parent="1">
          <mxGeometry x="200" y="400" width="80" height="80" as="geometry" />
        </mxCell>
        <mxCell id="Fs5cBfS6wUx0xTRTHXM6-5" value="" style="ellipse;whiteSpace=wrap;html=1;aspect=fixed;" vertex="1" parent="1">
          <mxGeometry x="400" y="400" width="80" height="80" as="geometry" />
        </mxCell>
        <mxCell id="Fs5cBfS6wUx0xTRTHXM6-6" value="" style="ellipse;whiteSpace=wrap;html=1;aspect=fixed;" vertex="1" parent="1">
          <mxGeometry x="600" y="400" width="80" height="80" as="geometry" />
        </mxCell>
        <mxCell id="Fs5cBfS6wUx0xTRTHXM6-7" value="" style="ellipse;whiteSpace=wrap;html=1;aspect=fixed;" vertex="1" parent="1">
          <mxGeometry x="800" y="400" width="80" height="80" as="geometry" />
        </mxCell>
        <mxCell id="Fs5cBfS6wUx0xTRTHXM6-8" value="&lt;font style=&quot;font-size: 14px;&quot;&gt;&lt;b&gt;E&lt;sub&gt;0&lt;/sub&gt;(0/0/0)&lt;/b&gt;&lt;/font&gt;" style="text;html=1;align=center;verticalAlign=middle;whiteSpace=wrap;rounded=0;" vertex="1" parent="1">
          <mxGeometry x="210" y="225" width="60" height="30" as="geometry" />
        </mxCell>
        <mxCell id="Fs5cBfS6wUx0xTRTHXM6-9" value="&lt;b&gt;&lt;font style=&quot;font-size: 14px;&quot;&gt;E&lt;/font&gt;&lt;font style=&quot;font-size: 11.6667px;&quot;&gt;&lt;sub&gt;2&lt;/sub&gt;&lt;/font&gt;&lt;font style=&quot;&quot;&gt;&lt;span style=&quot;font-size: 14px;&quot;&gt;(0/1/0)&lt;/span&gt;&lt;/font&gt;&lt;/b&gt;" style="text;html=1;align=center;verticalAlign=middle;whiteSpace=wrap;rounded=0;" vertex="1" parent="1">
          <mxGeometry x="210" y="425" width="60" height="30" as="geometry" />
        </mxCell>
        <mxCell id="Fs5cBfS6wUx0xTRTHXM6-10" value="&lt;b&gt;&lt;font style=&quot;font-size: 14px;&quot;&gt;E&lt;/font&gt;&lt;font style=&quot;font-size: 11.6667px;&quot;&gt;&lt;sub&gt;3&lt;/sub&gt;&lt;/font&gt;&lt;font style=&quot;&quot;&gt;&lt;span style=&quot;font-size: 14px;&quot;&gt;(1/1/0)&lt;/span&gt;&lt;/font&gt;&lt;/b&gt;" style="text;html=1;align=center;verticalAlign=middle;whiteSpace=wrap;rounded=0;" vertex="1" parent="1">
          <mxGeometry x="410" y="425" width="60" height="30" as="geometry" />
        </mxCell>
        <mxCell id="Fs5cBfS6wUx0xTRTHXM6-11" value="&lt;b&gt;&lt;font style=&quot;font-size: 14px;&quot;&gt;E&lt;/font&gt;&lt;font style=&quot;font-size: 11.6667px;&quot;&gt;&lt;sub&gt;4&lt;/sub&gt;&lt;/font&gt;&lt;font style=&quot;&quot;&gt;&lt;span style=&quot;font-size: 14px;&quot;&gt;(1/1/1)&lt;/span&gt;&lt;/font&gt;&lt;/b&gt;" style="text;html=1;align=center;verticalAlign=middle;whiteSpace=wrap;rounded=0;" vertex="1" parent="1">
          <mxGeometry x="610" y="425" width="60" height="30" as="geometry" />
        </mxCell>
        <mxCell id="Fs5cBfS6wUx0xTRTHXM6-12" value="&lt;b&gt;&lt;font style=&quot;font-size: 14px;&quot;&gt;E&lt;/font&gt;&lt;font style=&quot;font-size: 11.6667px;&quot;&gt;&lt;sub&gt;1&lt;/sub&gt;&lt;/font&gt;&lt;font style=&quot;&quot;&gt;&lt;span style=&quot;font-size: 14px;&quot;&gt;(1/0/0)&lt;/span&gt;&lt;/font&gt;&lt;/b&gt;" style="text;html=1;align=center;verticalAlign=middle;whiteSpace=wrap;rounded=0;" vertex="1" parent="1">
          <mxGeometry x="410" y="225" width="60" height="30" as="geometry" />
        </mxCell>
        <mxCell id="Fs5cBfS6wUx0xTRTHXM6-13" value="&lt;b&gt;&lt;font style=&quot;font-size: 14px;&quot;&gt;E&lt;/font&gt;&lt;font style=&quot;font-size: 11.6667px;&quot;&gt;&lt;sub&gt;5&lt;/sub&gt;&lt;/font&gt;&lt;font style=&quot;&quot;&gt;&lt;span style=&quot;font-size: 14px;&quot;&gt;(1/1/2)&lt;/span&gt;&lt;/font&gt;&lt;/b&gt;" style="text;html=1;align=center;verticalAlign=middle;whiteSpace=wrap;rounded=0;" vertex="1" parent="1">
          <mxGeometry x="810" y="425" width="60" height="30" as="geometry" />
        </mxCell>
        <mxCell id="Fs5cBfS6wUx0xTRTHXM6-14" value="&lt;b&gt;&lt;font style=&quot;font-size: 14px;&quot;&gt;E&lt;/font&gt;&lt;font style=&quot;&quot;&gt;&lt;span style=&quot;font-size: 11.6667px;&quot;&gt;&lt;sub&gt;6&lt;/sub&gt;&lt;/span&gt;&lt;span style=&quot;font-size: 14px;&quot;&gt;(1/1/3)&lt;/span&gt;&lt;/font&gt;&lt;/b&gt;" style="text;html=1;align=center;verticalAlign=middle;whiteSpace=wrap;rounded=0;" vertex="1" parent="1">
          <mxGeometry x="1010" y="425" width="60" height="30" as="geometry" />
        </mxCell>
        <mxCell id="Fs5cBfS6wUx0xTRTHXM6-17" value="" style="endArrow=classic;startArrow=classic;html=1;rounded=0;exitX=1;exitY=0.5;exitDx=0;exitDy=0;entryX=0;entryY=0.5;entryDx=0;entryDy=0;" edge="1" parent="1" source="Fs5cBfS6wUx0xTRTHXM6-2" target="Fs5cBfS6wUx0xTRTHXM6-3">
          <mxGeometry width="50" height="50" relative="1" as="geometry">
            <mxPoint x="570" y="410" as="sourcePoint" />
            <mxPoint x="620" y="360" as="targetPoint" />
          </mxGeometry>
        </mxCell>
        <mxCell id="Fs5cBfS6wUx0xTRTHXM6-18" value="" style="endArrow=classic;startArrow=classic;html=1;rounded=0;exitX=0.5;exitY=1;exitDx=0;exitDy=0;entryX=0.5;entryY=0;entryDx=0;entryDy=0;" edge="1" parent="1" source="Fs5cBfS6wUx0xTRTHXM6-2" target="Fs5cBfS6wUx0xTRTHXM6-4">
          <mxGeometry width="50" height="50" relative="1" as="geometry">
            <mxPoint x="570" y="410" as="sourcePoint" />
            <mxPoint x="620" y="360" as="targetPoint" />
          </mxGeometry>
        </mxCell>
        <mxCell id="Fs5cBfS6wUx0xTRTHXM6-19" value="" style="endArrow=classic;startArrow=classic;html=1;rounded=0;exitX=0.5;exitY=1;exitDx=0;exitDy=0;entryX=0.5;entryY=0;entryDx=0;entryDy=0;" edge="1" parent="1" source="Fs5cBfS6wUx0xTRTHXM6-3" target="Fs5cBfS6wUx0xTRTHXM6-5">
          <mxGeometry width="50" height="50" relative="1" as="geometry">
            <mxPoint x="570" y="410" as="sourcePoint" />
            <mxPoint x="620" y="360" as="targetPoint" />
          </mxGeometry>
        </mxCell>
        <mxCell id="Fs5cBfS6wUx0xTRTHXM6-20" value="" style="endArrow=classic;startArrow=classic;html=1;rounded=0;exitX=1;exitY=0.5;exitDx=0;exitDy=0;entryX=0;entryY=0.5;entryDx=0;entryDy=0;" edge="1" parent="1" source="Fs5cBfS6wUx0xTRTHXM6-4" target="Fs5cBfS6wUx0xTRTHXM6-5">
          <mxGeometry width="50" height="50" relative="1" as="geometry">
            <mxPoint x="570" y="410" as="sourcePoint" />
            <mxPoint x="620" y="360" as="targetPoint" />
          </mxGeometry>
        </mxCell>
        <mxCell id="Fs5cBfS6wUx0xTRTHXM6-21" value="" style="endArrow=classic;startArrow=classic;html=1;rounded=0;exitX=1;exitY=0.5;exitDx=0;exitDy=0;entryX=0;entryY=0.5;entryDx=0;entryDy=0;" edge="1" parent="1" source="Fs5cBfS6wUx0xTRTHXM6-5" target="Fs5cBfS6wUx0xTRTHXM6-6">
          <mxGeometry width="50" height="50" relative="1" as="geometry">
            <mxPoint x="570" y="410" as="sourcePoint" />
            <mxPoint x="620" y="360" as="targetPoint" />
          </mxGeometry>
        </mxCell>
        <mxCell id="Fs5cBfS6wUx0xTRTHXM6-22" value="" style="endArrow=classic;startArrow=classic;html=1;rounded=0;exitX=1;exitY=0.5;exitDx=0;exitDy=0;entryX=0;entryY=0.5;entryDx=0;entryDy=0;" edge="1" parent="1" source="Fs5cBfS6wUx0xTRTHXM6-6" target="Fs5cBfS6wUx0xTRTHXM6-7">
          <mxGeometry width="50" height="50" relative="1" as="geometry">
            <mxPoint x="570" y="410" as="sourcePoint" />
            <mxPoint x="620" y="360" as="targetPoint" />
          </mxGeometry>
        </mxCell>
        <mxCell id="Fs5cBfS6wUx0xTRTHXM6-23" value="" style="endArrow=classic;startArrow=classic;html=1;rounded=0;exitX=1;exitY=0.5;exitDx=0;exitDy=0;entryX=0;entryY=0.5;entryDx=0;entryDy=0;" edge="1" parent="1" source="Fs5cBfS6wUx0xTRTHXM6-7" target="Fs5cBfS6wUx0xTRTHXM6-15">
          <mxGeometry width="50" height="50" relative="1" as="geometry">
            <mxPoint x="570" y="410" as="sourcePoint" />
            <mxPoint x="620" y="360" as="targetPoint" />
          </mxGeometry>
        </mxCell>
        <mxCell id="Fs5cBfS6wUx0xTRTHXM6-27" value="&lt;font style=&quot;font-size: 14px;&quot;&gt;p&lt;sub style=&quot;&quot;&gt;1&lt;/sub&gt;&lt;span style=&quot;color: rgb(77, 81, 86); font-family: Arial, sans-serif; text-align: left;&quot;&gt;λ&lt;/span&gt;&lt;/font&gt;" style="text;html=1;align=center;verticalAlign=middle;whiteSpace=wrap;rounded=0;" vertex="1" parent="1">
          <mxGeometry x="340" y="210" width="60" height="30" as="geometry" />
        </mxCell>
        <mxCell id="Fs5cBfS6wUx0xTRTHXM6-28" value="&lt;font style=&quot;font-size: 14px;&quot;&gt;p&lt;/font&gt;&lt;font style=&quot;font-size: 11.6667px;&quot;&gt;&lt;sub&gt;2&lt;/sub&gt;&lt;/font&gt;&lt;font style=&quot;&quot;&gt;&lt;span style=&quot;font-size: 14px; color: rgb(77, 81, 86); font-family: Arial, sans-serif; text-align: left;&quot;&gt;λ&lt;/span&gt;&lt;/font&gt;" style="text;html=1;align=center;verticalAlign=middle;whiteSpace=wrap;rounded=0;fontStyle=1" vertex="1" parent="1">
          <mxGeometry x="180" y="370" width="60" height="30" as="geometry" />
        </mxCell>
        <mxCell id="Fs5cBfS6wUx0xTRTHXM6-29" value="&lt;font style=&quot;font-size: 14px;&quot;&gt;u&lt;/font&gt;" style="text;html=1;align=center;verticalAlign=middle;whiteSpace=wrap;rounded=0;" vertex="1" parent="1">
          <mxGeometry x="230" y="280" width="60" height="30" as="geometry" />
        </mxCell>
        <mxCell id="Fs5cBfS6wUx0xTRTHXM6-30" value="&lt;font style=&quot;font-size: 14px;&quot;&gt;u&lt;/font&gt;" style="text;html=1;align=center;verticalAlign=middle;whiteSpace=wrap;rounded=0;" vertex="1" parent="1">
          <mxGeometry x="270" y="210" width="60" height="30" as="geometry" />
        </mxCell>
        <mxCell id="Fs5cBfS6wUx0xTRTHXM6-33" value="&lt;font style=&quot;&quot;&gt;&lt;span style=&quot;color: rgb(77, 81, 86); font-family: Arial, sans-serif; text-align: left;&quot;&gt;&lt;span style=&quot;font-size: 14px;&quot;&gt;p&lt;/span&gt;&lt;span style=&quot;font-size: 11.6667px;&quot;&gt;&lt;sub&gt;1&lt;/sub&gt;&lt;/span&gt;&lt;span style=&quot;font-size: 14px;&quot;&gt;λ&lt;/span&gt;&lt;/span&gt;&lt;/font&gt;" style="text;html=1;align=center;verticalAlign=middle;whiteSpace=wrap;rounded=0;" vertex="1" parent="1">
          <mxGeometry x="340" y="395" width="60" height="30" as="geometry" />
        </mxCell>
        <mxCell id="Fs5cBfS6wUx0xTRTHXM6-36" value="&lt;font style=&quot;font-size: 14px;&quot;&gt;&lt;span style=&quot;color: rgb(77, 81, 86); font-family: Arial, sans-serif; text-align: left;&quot;&gt;λ&lt;/span&gt;&lt;/font&gt;" style="text;html=1;align=center;verticalAlign=middle;whiteSpace=wrap;rounded=0;" vertex="1" parent="1">
          <mxGeometry x="950" y="400" width="60" height="30" as="geometry" />
        </mxCell>
        <mxCell id="Fs5cBfS6wUx0xTRTHXM6-37" value="&lt;font style=&quot;font-size: 14px;&quot;&gt;&lt;span style=&quot;color: rgb(77, 81, 86); font-family: Arial, sans-serif; text-align: left;&quot;&gt;λ&lt;/span&gt;&lt;/font&gt;" style="text;html=1;align=center;verticalAlign=middle;whiteSpace=wrap;rounded=0;" vertex="1" parent="1">
          <mxGeometry x="750" y="400" width="60" height="30" as="geometry" />
        </mxCell>
        <mxCell id="Fs5cBfS6wUx0xTRTHXM6-38" value="&lt;font style=&quot;font-size: 14px;&quot;&gt;&lt;span style=&quot;color: rgb(77, 81, 86); font-family: Arial, sans-serif; text-align: left;&quot;&gt;λ&lt;/span&gt;&lt;/font&gt;" style="text;html=1;align=center;verticalAlign=middle;whiteSpace=wrap;rounded=0;" vertex="1" parent="1">
          <mxGeometry x="560" y="395" width="60" height="30" as="geometry" />
        </mxCell>
        <mxCell id="Fs5cBfS6wUx0xTRTHXM6-40" value="&lt;font style=&quot;font-size: 14px;&quot;&gt;u&lt;/font&gt;" style="text;html=1;align=center;verticalAlign=middle;whiteSpace=wrap;rounded=0;" vertex="1" parent="1">
          <mxGeometry x="870" y="400" width="60" height="30" as="geometry" />
        </mxCell>
        <mxCell id="Fs5cBfS6wUx0xTRTHXM6-41" value="&lt;font style=&quot;font-size: 14px;&quot;&gt;u&lt;/font&gt;" style="text;html=1;align=center;verticalAlign=middle;whiteSpace=wrap;rounded=0;" vertex="1" parent="1">
          <mxGeometry x="670" y="400" width="60" height="30" as="geometry" />
        </mxCell>
        <mxCell id="Fs5cBfS6wUx0xTRTHXM6-42" value="&lt;font style=&quot;font-size: 14px;&quot;&gt;u&lt;/font&gt;" style="text;html=1;align=center;verticalAlign=middle;whiteSpace=wrap;rounded=0;" vertex="1" parent="1">
          <mxGeometry x="470" y="395" width="60" height="30" as="geometry" />
        </mxCell>
        <mxCell id="Fs5cBfS6wUx0xTRTHXM6-43" value="&lt;font style=&quot;font-size: 14px;&quot;&gt;u&lt;/font&gt;" style="text;html=1;align=center;verticalAlign=middle;whiteSpace=wrap;rounded=0;" vertex="1" parent="1">
          <mxGeometry x="270" y="395" width="60" height="30" as="geometry" />
        </mxCell>
        <mxCell id="Fs5cBfS6wUx0xTRTHXM6-44" value="&lt;font style=&quot;font-size: 14px;&quot;&gt;u&lt;/font&gt;" style="text;html=1;align=center;verticalAlign=middle;whiteSpace=wrap;rounded=0;" vertex="1" parent="1">
          <mxGeometry x="430" y="280" width="60" height="30" as="geometry" />
        </mxCell>
        <mxCell id="Fs5cBfS6wUx0xTRTHXM6-45" value="&lt;font style=&quot;font-size: 14px;&quot;&gt;p&lt;/font&gt;&lt;font style=&quot;font-size: 11.6667px;&quot;&gt;&lt;sub&gt;2&lt;/sub&gt;&lt;/font&gt;&lt;font style=&quot;&quot;&gt;&lt;span style=&quot;font-size: 14px; color: rgb(77, 81, 86); font-family: Arial, sans-serif; text-align: left;&quot;&gt;λ&lt;/span&gt;&lt;/font&gt;" style="text;html=1;align=center;verticalAlign=middle;whiteSpace=wrap;rounded=0;" vertex="1" parent="1">
          <mxGeometry x="430" y="365" width="60" height="30" as="geometry" />
        </mxCell>
      </root>
    </mxGraphModel>
  </diagram>
</mxfile>
